<?xml version="1.0" encoding="UTF-8" standalone="no"?>
<!DOCTYPE svg PUBLIC "-//W3C//DTD SVG 1.1//EN"
 "http://www.w3.org/Graphics/SVG/1.1/DTD/svg11.dtd">
<!-- Generated by graphviz version 2.48.0 (20210717.1556)
 -->
<!-- Title: multi Pages: 1 -->
<svg width="188pt" height="318pt"
 viewBox="14.40 14.40 173.40 303.40" xmlns="http://www.w3.org/2000/svg" xmlns:xlink="http://www.w3.org/1999/xlink">
<g id="graph0" class="graph" transform="scale(1 1) rotate(0) translate(18.4 299.4)">
<title>multi</title>
<polygon fill="white" stroke="transparent" points="-4,4 -4,-285 155,-285 155,4 -4,4"/>
<!-- u -->
<g id="node1" class="node">
<title>u</title>
<polygon fill="none" stroke="black" stroke-width="0.5" points="11,-202.5 11,-280.5 140,-280.5 140,-202.5 11,-202.5"/>
<text text-anchor="start" x="19" y="-237.8" font-family="Helvetica,sans-Serif" font-size="14.00">Users</text>
<polyline fill="none" stroke="black" stroke-width="0.5" points="64,-202.5 64,-280.5 "/>
<text text-anchor="start" x="74" y="-266.3" font-family="Helvetica,sans-Serif" font-weight="bold" font-size="14.00">user_id*</text>
<text text-anchor="start" x="85" y="-252.3" font-family="Helvetica,sans-Serif" font-size="14.00">email</text>
<text text-anchor="start" x="72" y="-238.3" font-family="Helvetica,sans-Serif" font-size="14.00">password</text>
<text text-anchor="start" x="90" y="-224.3" font-family="Helvetica,sans-Serif" font-size="14.00">age</text>
<text text-anchor="start" x="77.5" y="-210.3" font-family="Helvetica,sans-Serif" font-size="14.00">zipcode</text>
</g>
<!-- r -->
<g id="node3" class="node">
<title>r</title>
<polygon fill="none" stroke="black" stroke-width="0.5" points="3,-101.5 3,-165.5 148,-165.5 148,-101.5 3,-101.5"/>
<text text-anchor="start" x="11" y="-129.8" font-family="Helvetica,sans-Serif" font-size="14.00">Ratings</text>
<polyline fill="none" stroke="black" stroke-width="0.5" points="67,-101.5 67,-165.5 "/>
<text text-anchor="start" x="75" y="-151.3" font-family="Helvetica,sans-Serif" font-weight="bold" font-size="14.00">rating_id*</text>
<text text-anchor="start" x="79" y="-137.3" font-family="Helvetica,sans-Serif" font-style="italic" font-size="14.00">movie_id</text>
<text text-anchor="start" x="84.5" y="-123.3" font-family="Helvetica,sans-Serif" font-style="italic" font-size="14.00">user_id</text>
<text text-anchor="start" x="90" y="-109.3" font-family="Helvetica,sans-Serif" font-size="14.00">score</text>
</g>
<!-- u&#45;&gt;r -->
<g id="edge1" class="edge">
<title>u&#45;&gt;r</title>
<path fill="none" stroke="black" d="M75.5,-202.23C75.5,-193.72 75.5,-184.65 75.5,-176.01"/>
<polygon fill="black" stroke="black" points="75.5,-175.75 80,-165.75 75.5,-170.75 75.5,-165.75 75.5,-165.75 75.5,-165.75 75.5,-170.75 71,-165.75 75.5,-175.75 75.5,-175.75"/>
</g>
<!-- m -->
<g id="node2" class="node">
<title>m</title>
<polygon fill="none" stroke="black" stroke-width="0.5" points="0,-0.5 0,-64.5 151,-64.5 151,-0.5 0,-0.5"/>
<text text-anchor="start" x="8" y="-28.8" font-family="Helvetica,sans-Serif" font-size="14.00">Movies</text>
<polyline fill="none" stroke="black" stroke-width="0.5" points="61,-0.5 61,-64.5 "/>
<text text-anchor="start" x="72.5" y="-50.3" font-family="Helvetica,sans-Serif" font-weight="bold" font-size="14.00">movie_id*</text>
<text text-anchor="start" x="95" y="-36.3" font-family="Helvetica,sans-Serif" font-size="14.00">title</text>
<text text-anchor="start" x="69" y="-22.3" font-family="Helvetica,sans-Serif" font-size="14.00">released_at</text>
<text text-anchor="start" x="79" y="-8.3" font-family="Helvetica,sans-Serif" font-size="14.00">imdb_url</text>
</g>
<!-- r&#45;&gt;m -->
<g id="edge2" class="edge">
<title>r&#45;&gt;m</title>
<path fill="none" stroke="black" d="M75.5,-91.28C75.5,-82.42 75.5,-73.19 75.5,-64.78"/>
<polygon fill="black" stroke="black" points="75.5,-91.45 71,-101.45 75.5,-96.45 75.5,-101.45 75.5,-101.45 75.5,-101.45 75.5,-96.45 80,-101.45 75.5,-91.45 75.5,-91.45"/>
</g>
</g>
</svg>
